<svg xmlns="http://www.w3.org/2000/svg" viewBox="0 0 512 512" width="512" height="512" role="img" aria-label="Posse — Sheriff Oreo badge">
<defs><linearGradient id="bg" x1="0" y1="0" x2="0" y2="1"><stop offset="0" stop-color="#20293b"/><stop offset="1" stop-color="#141a26"/></linearGradient><linearGradient id="goldgrad" x1="0" y1="0" x2="0" y2="1"><stop offset="0" stop-color="#f6d873"/><stop offset="0.55" stop-color="#e8bb44"/><stop offset="1" stop-color="#b3841f"/></linearGradient></defs><rect x="6" y="6" width="500" height="500" rx="116" fill="url(#bg)" stroke="#33405c" stroke-width="3"/>
<path d="M 256.00,36.00 L 331.00,132.10 L 451.72,149.00 L 406.00,262.00 L 451.72,375.00 L 331.00,391.90 L 256.00,488.00 L 181.00,391.90 L 60.28,375.00 L 106.00,262.00 L 60.28,149.00 L 181.00,132.10 Z" fill="url(#goldgrad)" stroke="#8a6314" stroke-width="5" stroke-linejoin="round"/>
<circle cx="256.0" cy="36.0" r="10" fill="url(#goldgrad)" stroke="#8a6314" stroke-width="5"/>
<circle cx="451.7" cy="149.0" r="10" fill="url(#goldgrad)" stroke="#8a6314" stroke-width="5"/>
<circle cx="451.7" cy="375.0" r="10" fill="url(#goldgrad)" stroke="#8a6314" stroke-width="5"/>
<circle cx="256.0" cy="488.0" r="10" fill="url(#goldgrad)" stroke="#8a6314" stroke-width="5"/>
<circle cx="60.3" cy="375.0" r="10" fill="url(#goldgrad)" stroke="#8a6314" stroke-width="5"/>
<circle cx="60.3" cy="149.0" r="10" fill="url(#goldgrad)" stroke="#8a6314" stroke-width="5"/>
<path d="M 256.00,44.00 L 328.00,137.29 L 444.79,153.00 L 400.00,262.00 L 444.79,371.00 L 328.00,386.71 L 256.00,480.00 L 184.00,386.71 L 67.21,371.00 L 112.00,262.00 L 67.21,153.00 L 184.00,137.29 Z" fill="none" stroke="#f6d873" stroke-width="2.5" opacity="0.55"/>
<circle cx="256" cy="262" r="120" fill="#20293b" stroke="#b3841f" stroke-width="3.5"/>
<circle cx="256" cy="262" r="110" fill="none" stroke="#f6d873" stroke-width="1.5" opacity="0.4"/>
<defs><clipPath id="discA"><circle cx="256" cy="262" r="118"/></clipPath></defs>
<g clip-path="url(#discA)"><path d="M 200.0,273.2 L 172.8,210.8 L 160.0,266.8 Z" fill="#b8a488" stroke="#6f5c44" stroke-width="2.4" stroke-linejoin="round"/>
<path d="M 192.0,260.4 L 176.0,225.2 L 169.6,257.2 Z" fill="#e78ea1"/>
<path d="M 312.0,273.2 L 339.2,210.8 L 352.0,266.8 Z" fill="#b8a488" stroke="#6f5c44" stroke-width="2.4" stroke-linejoin="round"/>
<path d="M 320.0,260.4 L 336.0,225.2 L 342.4,257.2 Z" fill="#e78ea1"/>
<ellipse cx="256" cy="294" rx="89.6" ry="83.2" fill="#b8a488" stroke="#6f5c44" stroke-width="2.4"/>
<path d="M 232.0,250.8 L 237.6,218.0 L 256.0,241.2 L 274.4,218.0 L 280.0,250.8" stroke="#6f5c44" stroke-width="5.2" stroke-linecap="round" stroke-linejoin="round" fill="none" opacity="0.9"/>
<path d="M 179.2,270.0 l -14.4,-4.8" stroke="#6f5c44" stroke-width="4.8" stroke-linecap="round" fill="none" opacity="0.8"/>
<path d="M 176.8,287.6 l -14.4,0.0" stroke="#6f5c44" stroke-width="4.8" stroke-linecap="round" fill="none" opacity="0.8"/>
<path d="M 332.8,270.0 l 14.4,-4.8" stroke="#6f5c44" stroke-width="4.8" stroke-linecap="round" fill="none" opacity="0.8"/>
<path d="M 335.2,287.6 l 14.4,0.0" stroke="#6f5c44" stroke-width="4.8" stroke-linecap="round" fill="none" opacity="0.8"/>
<ellipse cx="256" cy="322.8" rx="46.4" ry="35.2" fill="#f4e7cd"/>
<ellipse cx="222.4" cy="289.2" rx="21.6" ry="22.4" fill="#f2a91e" stroke="#cf8410" stroke-width="2.0"/>
<ellipse cx="222.4" cy="290.8" rx="8.8" ry="13.6" fill="#2b2118"/>
<circle cx="216.8" cy="282.0" r="5.2" fill="#ffffff"/>
<circle cx="226.4" cy="298.8" r="2.4" fill="#ffffff" opacity="0.7"/>
<ellipse cx="289.6" cy="289.2" rx="21.6" ry="22.4" fill="#f2a91e" stroke="#cf8410" stroke-width="2.0"/>
<ellipse cx="289.6" cy="290.8" rx="8.8" ry="13.6" fill="#2b2118"/>
<circle cx="295.2" cy="282.0" r="5.2" fill="#ffffff"/>
<circle cx="285.6" cy="298.8" r="2.4" fill="#ffffff" opacity="0.7"/>
<path d="M 245.6,311.6 L 266.4,311.6 L 256.0,322.8 Z" fill="#e78ea1" stroke="#c96b80" stroke-width="1.6" stroke-linejoin="round"/>
<path d="M 256.0,322.8 L 256.0,332.4 M 256.0,332.4 q -11.2,8.0 -19.2,-1.6 M 256.0,332.4 q 11.2,8.0 19.2,-1.6" fill="none" stroke="#6f5c44" stroke-width="2.4" stroke-linecap="round"/>
<path d="M 232.0,313.2 q -36.8,-9.2 -67.2,-8.0" fill="none" stroke="#6f5c44" stroke-width="1.9" stroke-linecap="round" opacity="0.7"/>
<path d="M 280.0,313.2 q 36.8,-9.2 67.2,-8.0" fill="none" stroke="#6f5c44" stroke-width="1.9" stroke-linecap="round" opacity="0.7"/>
<path d="M 232.0,322.8 q -36.8,2.8 -67.2,11.2" fill="none" stroke="#6f5c44" stroke-width="1.9" stroke-linecap="round" opacity="0.7"/>
<path d="M 280.0,322.8 q 36.8,2.8 67.2,11.2" fill="none" stroke="#6f5c44" stroke-width="1.9" stroke-linecap="round" opacity="0.7"/>
<path d="M 200.0,361.2 Q 256.0,366.0 312.0,361.2 L 297.6,393.2 Q 256.0,407.6 214.4,393.2 Z" fill="#38538a" stroke="#26386a" stroke-width="2.0" stroke-linejoin="round"/>
<circle cx="228.8" cy="370.8" r="3.4" fill="#6e8bc0"/>
<circle cx="225.6" cy="367.6" r="1.4" fill="#6e8bc0"/>
<circle cx="228.8" cy="366.4" r="1.4" fill="#6e8bc0"/>
<circle cx="232.0" cy="367.6" r="1.4" fill="#6e8bc0"/>
<circle cx="257.6" cy="378.8" r="3.4" fill="#6e8bc0"/>
<circle cx="254.4" cy="375.6" r="1.4" fill="#6e8bc0"/>
<circle cx="257.6" cy="374.4" r="1.4" fill="#6e8bc0"/>
<circle cx="260.8" cy="375.6" r="1.4" fill="#6e8bc0"/>
<circle cx="283.2" cy="370.8" r="3.4" fill="#6e8bc0"/>
<circle cx="280.0" cy="367.6" r="1.4" fill="#6e8bc0"/>
<circle cx="283.2" cy="366.4" r="1.4" fill="#6e8bc0"/>
<circle cx="286.4" cy="367.6" r="1.4" fill="#6e8bc0"/>
<circle cx="243.2" cy="390.0" r="3.4" fill="#6e8bc0"/>
<circle cx="240.0" cy="386.8" r="1.4" fill="#6e8bc0"/>
<circle cx="243.2" cy="385.6" r="1.4" fill="#6e8bc0"/>
<circle cx="246.4" cy="386.8" r="1.4" fill="#6e8bc0"/>
<circle cx="272.0" cy="390.0" r="3.4" fill="#6e8bc0"/>
<circle cx="268.8" cy="386.8" r="1.4" fill="#6e8bc0"/>
<circle cx="272.0" cy="385.6" r="1.4" fill="#6e8bc0"/>
<circle cx="275.2" cy="386.8" r="1.4" fill="#6e8bc0"/></g>
<path d="M 204.5,206.0 L 215.4,135.1 Q 239.0,124.2 256.0,141.4 Q 273.0,124.2 296.6,135.1 L 307.5,206.0 Z" fill="#d99f5c" stroke="#a9713a" stroke-width="1.6"/>
<path d="M 256.0,142.9 L 256.0,186.6" fill="none" stroke="#a9713a" stroke-width="3.1" stroke-linecap="round" opacity="0.5"/>
<path d="M 206.1,203.8 Q 256.0,209.2 305.9,203.8 L 305.9,191.3 Q 256.0,196.7 206.1,191.3 Z" fill="#38538a" stroke="#26386a" stroke-width="1.2"/>
<path d="M 256.00,190.50 L 257.83,195.00 L 262.68,195.35 L 258.97,198.48 L 260.13,203.20 L 256.00,200.64 L 251.87,203.20 L 253.03,198.48 L 249.32,195.35 L 254.17,195.00 Z" fill="url(#goldgrad)" stroke="#8a6314" stroke-width="1"/>
<path d="M 137.4,202.2 Q 256.0,230.3 374.6,202.2 Q 256.0,214.7 137.4,202.2 Z" fill="#d99f5c" stroke="#a9713a" stroke-width="1.6" stroke-linejoin="round"/>
<path d="M 161.2,203.8 Q 256.0,211.6 350.8,203.8" fill="none" stroke="#eab979" stroke-width="2.0" opacity="0.6"/>
</svg>